# xmcd
#
# Track frame offsets: 
#        150
#        10864
#        21570
#        34600
#        43728
#        53612
#        69261
#        84233
#        94909
#        112866
#        126513
#        137649
#        160655
#        174878
#        186167
#        200016
#        219554
#        232614
#        245400
#        259368
#        279832
#
# Disc length: 4217 seconds
#
# Revision: 0
# Processed by: cddbd v1.5.2PL0 Copyright (c) Steve Scherf et al.
# Submitted via: ExactAudioCopy v1.1
#
DISCID=16107715
DTITLE=Various Artist - On A Cool Day - The Soulful Side Of Cool Jazz
DYEAR=1965
DGENRE=Jazz
TTITLE0=Sonny Rollins and The Modern Jazz Quartet - Mambo Bounce
TTITLE1=Mel Tormé - Right Now
TTITLE2=Ray Bryant Combo - Sack O' Woe
TTITLE3=Stan Getz and Charlie Byrd - Desafinado
TTITLE4=Lyn Avaron - I Walk The Streets
TTITLE5=Art Pepper - 'Round Midnight
TTITLE6=Charlie Mingus - Scenes In The City (edit)
TTITLE7=The Mose Allison Trio - I Love The Life I Live
TTITLE8=The Dave Bailey Trio - Comin' Home Baby
TTITLE9=Ahmad Jamal Trio - Poinciana
TTITLE10=Ann Henry - Like Young
TTITLE11=Bobby Timmons - Moanin'
TTITLE12=Jack Kerouac - San Francisco Scene (The Beat Generation)
TTITLE13=Willie Jackson and Band - Good To The Bone
TTITLE14=Cootie Williams and Wini Brown - Johnny With The Gentle Hands
TTITLE15=Wayne Shorter - Wayning Moments
TTITLE16=Sonny Stitt - Baby, Do You Ever Think Of Me
TTITLE17=Etta James - Nature Boy
TTITLE18=Vince Guaraldi Trio - Cast Your Fate to the Wind
TTITLE19=Art Farmer - Goodbye, Old Girl
TTITLE20=Miles Davis - It Never Entered My Mind
EXTD=
EXTT0=
EXTT1=
EXTT2=
EXTT3=
EXTT4=
EXTT5=
EXTT6=
EXTT7=
EXTT8=
EXTT9=
EXTT10=
EXTT11=
EXTT12=
EXTT13=
EXTT14=
EXTT15=
EXTT16=
EXTT17=
EXTT18=
EXTT19=
EXTT20=
PLAYORDER=
